<?xml version="1.0" encoding="utf-8"?>
<!-- Generator: Adobe Illustrator 16.2.0, SVG Export Plug-In . SVG Version: 6.00 Build 0)  -->
<!DOCTYPE svg PUBLIC "-//W3C//DTD SVG 1.1//EN" "http://www.w3.org/Graphics/SVG/1.1/DTD/svg11.dtd">
<svg version="1.1" id="Layer_1" xmlns="http://www.w3.org/2000/svg" xmlns:xlink="http://www.w3.org/1999/xlink" x="0px" y="0px"
	 width="450px" height="600px" viewBox="0 0 450 600" enable-background="new 0 0 450 600" xml:space="preserve">
<path fill="#F39C12" d="M325,225c0,55.229-44.771,100-100,100H125c-55.229,0-100-44.771-100-100V125C25,69.771,69.771,25,125,25h100
	c55.229,0,100,44.771,100,100V225z"/>
<rect x="75" y="75" fill="#ECF0F1" stroke="#BDC3C7" stroke-width="2" stroke-miterlimit="10" width="300" height="200"/>
<path fill="#F1C40F" d="M425,479.763C425,532.085,380.229,575,325,575H125c-55.229,0-100-42.915-100-95.237V219.236
	C25,166.915,69.771,125,125,125h200c55.229,0,100,41.915,100,94.236V479.763z"/>
</svg>
