<?xml version="1.0" encoding="utf-8"?>
<!-- Generator: Adobe Illustrator 16.2.0, SVG Export Plug-In . SVG Version: 6.00 Build 0)  -->
<!DOCTYPE svg PUBLIC "-//W3C//DTD SVG 1.1//EN" "http://www.w3.org/Graphics/SVG/1.1/DTD/svg11.dtd">
<svg version="1.1" id="Layer_1" xmlns="http://www.w3.org/2000/svg" xmlns:xlink="http://www.w3.org/1999/xlink" x="0px" y="0px"
	 width="600px" height="600px" viewBox="0 0 600 600" enable-background="new 0 0 600 600" xml:space="preserve">
<path fill="#FFFFFF" d="M316.14,222c-0.06,0.66-0.1,1.33-0.14,2v-2H316.14z"/>
<path fill="#FFFFFF" d="M525,25H75c-27.614,0-50,22.386-50,50v450c0,27.614,22.386,50,50,50h231V345h-52v-75h52v-46
	c0.04-0.67,0.08-1.34,0.14-2C310.63,160.18,354,117.3,416,113.64V114h63v75h-64.55c-20.62,4.1-29.67,13.67-33.45,35v46h98l-15.08,75
	H381v230h144c27.614,0,50-22.386,50-50V75C575,47.386,552.614,25,525,25z"/>
</svg>
