<?xml version="1.0" encoding="utf-8"?>
<!-- Generator: Adobe Illustrator 16.2.0, SVG Export Plug-In . SVG Version: 6.00 Build 0)  -->
<!DOCTYPE svg PUBLIC "-//W3C//DTD SVG 1.1//EN" "http://www.w3.org/Graphics/SVG/1.1/DTD/svg11.dtd">
<svg version="1.1" id="Layer_1" xmlns="http://www.w3.org/2000/svg" xmlns:xlink="http://www.w3.org/1999/xlink" x="0px" y="0px"
	 width="600px" height="600px" viewBox="0 0 600 600" enable-background="new 0 0 600 600" xml:space="preserve">
<rect x="263" y="25" width="75" height="100"/>
<rect x="475" y="263" width="100" height="75"/>
<rect x="25" y="263" width="100" height="75"/>
<rect x="263" y="475" width="75" height="100"/>
<rect x="425.5" y="87.499" transform="matrix(0.7071 0.7071 -0.7071 0.7071 232.8362 -287.1178)" width="75" height="100"/>
<rect x="99.499" y="86.5" transform="matrix(0.7071 -0.7071 0.7071 0.7071 -56.3938 136.8532)" width="75" height="100"/>
<rect x="99.5" y="413.499" transform="matrix(0.7071 0.7071 -0.7071 0.7071 367.8697 38.8821)" width="75" height="100"/>
<rect x="425.499" y="413.5" transform="matrix(0.7071 -0.7071 0.7071 0.7071 -192.1345 463.1461)" width="75" height="100"/>
<path d="M300.243,75.486c-124.264,0-225,100.736-225,225s100.736,225,225,225s225-100.736,225-225S424.507,75.486,300.243,75.486z
	 M299.729,375c-41.421,0-75-33.579-75-75c0-41.421,33.579-75,75-75s75,33.579,75,75C374.729,341.421,341.15,375,299.729,375z"/>
</svg>
