<?xml version="1.0" encoding="utf-8"?>
<!-- Generator: Adobe Illustrator 16.2.0, SVG Export Plug-In . SVG Version: 6.00 Build 0)  -->
<!DOCTYPE svg PUBLIC "-//W3C//DTD SVG 1.1//EN" "http://www.w3.org/Graphics/SVG/1.1/DTD/svg11.dtd">
<svg version="1.1" id="Layer_1" xmlns="http://www.w3.org/2000/svg" xmlns:xlink="http://www.w3.org/1999/xlink" x="0px" y="0px"
	 width="600px" height="600px" viewBox="0 0 600 600" enable-background="new 0 0 600 600" xml:space="preserve">
<path fill="#FFFFFF" d="M300.135,24.892c-151.878,0-275,123.122-275,275c0,127.275,86.471,234.339,203.865,265.69V506.4
	c-22.93,3.159-52.26-2.04-74-27.4c-32-37.35-16.71-49.54-55.33-88c-4.609-4.59-15.109-13.22,4.66-14.38
	c32.9-1.94,59.32,59.26,62.67,65.05c5.87,10.14,27.48,26.29,62,20.97V452c0-21.76,9.27-41.36,24.08-55.05
	c-2.63-0.36-5.1-0.75-7.38-1.19c-83.171-15.93-110.38-29.92-116.591-116.59c-2.189-30.58,9.66-56.51,29.58-76.22
	c-4.33-32.74,11.811-88.76,11.811-88.76s64.189,10.41,83.66,47.38c29.84-3.15,70.43-3.25,103.77,0.5
	c19.15-37.38,83.92-47.88,83.92-47.88s16.641,57.76,11.601,90.25c18.14,19.5,27.76,44.871,25.43,74.73
	c-6.99,89.78-34.979,103.38-116.59,116.59c-2.32,0.37-4.84,0.721-7.521,1.05c0.771,0.7,1.521,1.421,2.261,2.16
	C370.6,412.54,379,431.29,379,452v111.396c113.439-33.904,196.135-139.038,196.135-263.503
	C575.135,148.014,452.014,24.892,300.135,24.892z"/>
</svg>
