<?xml version="1.0" encoding="utf-8"?>
<!-- Generator: Adobe Illustrator 16.2.0, SVG Export Plug-In . SVG Version: 6.00 Build 0)  -->
<!DOCTYPE svg PUBLIC "-//W3C//DTD SVG 1.1//EN" "http://www.w3.org/Graphics/SVG/1.1/DTD/svg11.dtd">
<svg version="1.1" id="Layer_1" xmlns="http://www.w3.org/2000/svg" xmlns:xlink="http://www.w3.org/1999/xlink" x="0px" y="0px"
	 width="600px" height="600px" viewBox="0 0 600 600" enable-background="new 0 0 600 600" xml:space="preserve">
<g>
	<circle cx="299.291" cy="301.291" r="120.551"/>
	<path d="M525,27H75c-27.614,0-50,22.386-50,50v450c0,27.614,22.386,50,50,50h450c27.614,0,50-22.386,50-50V77
		C575,49.386,552.614,27,525,27z M300,468.645c-92.035,0-166.645-74.609-166.645-166.645S207.965,135.355,300,135.355
		S466.645,209.965,466.645,302S392.035,468.645,300,468.645z M481.243,158.096c-23.498,0-42.548-19.051-42.548-42.549
		S457.745,73,481.243,73s42.548,19.049,42.548,42.547S504.741,158.096,481.243,158.096z"/>
</g>
</svg>
