<?xml version="1.0" encoding="utf-8"?>
<!-- Generator: Adobe Illustrator 16.2.0, SVG Export Plug-In . SVG Version: 6.00 Build 0)  -->
<!DOCTYPE svg PUBLIC "-//W3C//DTD SVG 1.1//EN" "http://www.w3.org/Graphics/SVG/1.1/DTD/svg11.dtd">
<svg version="1.1" id="Layer_1" xmlns="http://www.w3.org/2000/svg" xmlns:xlink="http://www.w3.org/1999/xlink" x="0px" y="0px"
	 width="600px" height="600px" viewBox="0 0 600 600" enable-background="new 0 0 600 600" xml:space="preserve">
<g>
	<path d="M475,238c-3.438-101.384-75.953-177.302-179.458-174.95C195.45,65.325,128.322,140.121,125,238c-16.667,0-33.333,0-50,0
		c1.814-68.587,24.733-133.45,80.036-176.871C195.975,28.985,248.229,13,300,13c51.771,0,104.025,15.985,144.964,48.129
		C500.265,104.55,523.188,169.414,525,238C508.333,238,491.667,238,475,238z"/>
</g>
<path d="M75,238v350h450V238H75z M325,405.92V513h-50V405.91c-14.94-8.641-24.99-24.801-24.99-43.301c0-27.619,22.391-50,50-50
	c27.62,0,50,22.381,50,50C350.01,381.12,339.95,397.279,325,405.92z"/>
</svg>
