<?xml version="1.0" encoding="utf-8"?>
<!-- Generator: Adobe Illustrator 16.2.0, SVG Export Plug-In . SVG Version: 6.00 Build 0)  -->
<!DOCTYPE svg PUBLIC "-//W3C//DTD SVG 1.1//EN" "http://www.w3.org/Graphics/SVG/1.1/DTD/svg11.dtd">
<svg version="1.1" id="Layer_1" xmlns="http://www.w3.org/2000/svg" xmlns:xlink="http://www.w3.org/1999/xlink" x="0px" y="0px"
	 width="600px" height="600px" viewBox="0 0 600 600" enable-background="new 0 0 600 600" xml:space="preserve">
<g>
	<path fill="#FFFFFF" d="M442.906,180.557C413.15,89.141,327.182,39.056,233.551,68.38
		c-90.545,28.357-132.028,114.095-109.348,204.094c-15.176,4.377-30.353,8.754-45.529,13.131
		c-16.361-62.931-12.525-128.013,26.429-182.075c28.837-40.021,72.22-68.3,119.362-81.896
		c47.141-13.596,98.921-12.764,144.642,5.755c61.758,25.015,99.667,78.059,119.329,140.036
		C473.26,171.803,458.084,176.18,442.906,180.557z"/>
</g>
<path fill="#FFFFFF" d="M75,256v332h427V256H75z M312,415.442V517h-48V415.434c-14-8.188-23.556-23.504-23.556-41.036
	c0-26.175,21.284-47.386,47.448-47.386c26.175,0,47.598,21.211,47.598,47.386C335.49,391.94,326,407.254,312,415.442z"/>
</svg>
