<?xml version="1.0" encoding="utf-8"?>
<!-- Generator: Adobe Illustrator 16.2.0, SVG Export Plug-In . SVG Version: 6.00 Build 0)  -->
<!DOCTYPE svg PUBLIC "-//W3C//DTD SVG 1.1//EN" "http://www.w3.org/Graphics/SVG/1.1/DTD/svg11.dtd">
<svg version="1.1" id="Layer_1" xmlns="http://www.w3.org/2000/svg" xmlns:xlink="http://www.w3.org/1999/xlink" x="0px" y="0px"
	 width="600px" height="600px" viewBox="0 0 600 600" enable-background="new 0 0 600 600" xml:space="preserve">
<path fill="#FFFFFF" d="M300,24.919c-151.878,0-275,123.122-275,275s123.122,275,275,275s275-123.122,275-275
	S451.878,24.919,300,24.919z M300,549.919c-138.071,0-250-111.929-250-250c0-138.071,111.929-250,250-250
	c138.071,0,250,111.929,250,250C550,437.99,438.071,549.919,300,549.919z"/>
<g>
	<path fill="#FFFFFF" d="M164.455,269.38c-6.801,0-12.068,2.634-15.801,7.899c-3.734,5.269-5.6,12.5-5.6,21.7
		c0,9.199,1.865,16.5,5.6,21.9c3.732,5.399,9,8.1,15.801,8.1c6.8,0,12.031-2.7,15.699-8.1c3.666-5.4,5.5-12.701,5.5-21.9
		c0-9.2-1.834-16.432-5.5-21.7C176.486,272.014,171.255,269.38,164.455,269.38z"/>
	<path fill="#FFFFFF" d="M299.852,61.378c-131.168,0-237.5,106.333-237.5,237.5c0,131.167,106.332,237.5,237.5,237.5
		s237.5-106.333,237.5-237.5C537.352,167.711,431.02,61.378,299.852,61.378z M453,213h31v35.979c0,10.8-0.176,21.08-0.975,30.41
		c-0.801,9.335-1.645,18.611-2.977,28.611H457.25c-1.336-10-2.26-19.276-3.125-28.611c-0.869-9.33-1.125-19.61-1.125-30.41V213z
		 M212.455,321.679c-2.4,6.869-5.869,12.734-10.4,17.601c-4.534,4.868-9.969,8.634-16.3,11.3c-6.335,2.666-13.435,4-21.3,4
		c-7.734,0-14.77-1.334-21.1-4c-6.335-2.666-11.77-6.432-16.301-11.3c-4.534-4.866-8.068-10.731-10.6-17.601
		c-2.535-6.865-3.801-14.431-3.801-22.699c0-8.266,1.301-15.801,3.9-22.6c2.6-6.801,6.2-12.601,10.801-17.4
		c4.6-4.801,10.064-8.531,16.399-11.2c6.331-2.665,13.231-4,20.7-4c7.6,0,14.565,1.335,20.9,4c6.33,2.669,11.766,6.399,16.299,11.2
		c4.531,4.8,8.066,10.6,10.601,17.4c2.531,6.799,3.8,14.334,3.8,22.6C216.055,307.248,214.855,314.813,212.455,321.679z
		 M302.154,346.599c-7.801,5.318-18.835,7.98-33.101,7.98c-9.335,0-17.101-0.8-23.3-2.4c-6.2-1.6-10.5-2.931-12.9-4l5-24.199
		c5.066,2,10.266,3.568,15.6,4.699c5.332,1.135,10.601,1.701,15.801,1.701c5.465,0,9.331-0.531,11.6-1.601
		c2.266-1.065,3.4-3.132,3.4-6.2c0-2.4-1.469-4.5-4.4-6.3c-2.934-1.8-7.4-3.831-13.4-6.101c-4.668-1.73-8.899-3.531-12.699-5.399
		c-3.801-1.866-7.035-4.101-9.7-6.7c-2.669-2.6-4.734-5.699-6.2-9.3c-1.469-3.601-2.199-7.931-2.199-13
		c0-9.866,3.665-17.665,11-23.399c7.33-5.732,17.399-8.601,30.199-8.601c6.4,0,12.531,0.569,18.4,1.7
		c5.865,1.135,10.531,2.369,14,3.699l-5.2,23.201c-3.469-1.201-7.234-2.266-11.3-3.201c-4.068-0.931-8.635-1.399-13.7-1.399
		c-9.335,0-14,2.601-14,7.8c0,1.2,0.2,2.27,0.601,3.2c0.399,0.935,1.199,1.835,2.399,2.7c1.2,0.869,2.831,1.807,4.899,2.813
		c2.066,1.01,4.701,2.119,7.9,3.324c6.531,2.422,11.932,4.811,16.2,7.16c4.266,2.354,7.632,4.894,10.101,7.619
		c2.465,2.728,4.199,5.756,5.199,9.08c1,3.326,1.5,7.186,1.5,11.572C313.854,333.427,309.953,341.276,302.154,346.599z M426,348.179
		c-5,1.469-11.674,2.835-19.674,4.101s-16.438,1.899-25.238,1.899c-8.935,0-16.388-1.199-22.318-3.6
		c-5.935-2.4-10.644-5.766-14.109-10.1c-3.469-4.332-5.964-9.5-7.43-15.5c-1.469-6-2.23-12.6-2.23-19.801V247h30v54.579
		c0,9.6,1.191,16.535,3.725,20.801c2.531,4.268,7.229,6.399,14.163,6.399c2.132,0,4.356-0.101,6.756-0.3
		c2.4-0.2,4.356-0.432,6.356-0.7V247h30V348.179z M481.35,349.579c-3.801,3.2-8.1,4.801-12.9,4.801s-9.1-1.601-12.9-4.801
		c-3.799-3.199-5.699-7.73-5.699-13.6c0-5.865,1.9-10.4,5.699-13.6c3.801-3.201,8.1-4.801,12.9-4.801s9.1,1.6,12.9,4.801
		c3.799,3.199,5.699,7.734,5.699,13.6C487.049,341.849,485.148,346.38,481.35,349.579z"/>
</g>
</svg>
