<?xml version="1.0" encoding="utf-8"?>
<!-- Generator: Adobe Illustrator 16.2.0, SVG Export Plug-In . SVG Version: 6.00 Build 0)  -->
<!DOCTYPE svg PUBLIC "-//W3C//DTD SVG 1.1//EN" "http://www.w3.org/Graphics/SVG/1.1/DTD/svg11.dtd">
<svg version="1.1" id="Layer_1" xmlns="http://www.w3.org/2000/svg" xmlns:xlink="http://www.w3.org/1999/xlink" x="0px" y="0px"
	 width="600px" height="600px" viewBox="0 0 600 600" enable-background="new 0 0 600 600" xml:space="preserve">
<g>
	<path d="M467.09,97.63c-46.41-35.65-105.447-52.881-163.647-51.949c-58.475,0.936-117.177,20.281-162.269,58.06
		c-57.673,48.32-81.468,118.379-83.23,191.904c33.334,0,66.666,0,100,0c3.339-83.609,59.626-147.645,145.5-149.94
		c52.076-1.391,94.746,20.186,121.979,55.678l88.57-54.25C501.404,128.768,485.891,112.071,467.09,97.63z"/>
</g>
<polygon points="58,323 58,522.563 257.898,323 "/>
<g>
	<path d="M132.796,503.289c46.411,35.651,105.447,52.882,163.649,51.95c58.474-0.936,117.176-20.28,162.267-58.06
		c57.675-48.32,81.469-118.379,83.231-191.905c-33.332,0.001-66.666-0.001-100,0.001c-3.338,83.609-59.626,147.645-145.5,149.939
		c-52.075,1.392-94.746-20.186-121.979-55.678l-88.57,54.248C98.482,472.15,113.996,488.849,132.796,503.289z"/>
</g>
<polygon points="541,275 541,74.348 341.684,275 "/>
</svg>
