<?xml version="1.0" encoding="utf-8"?>
<!-- Generator: Adobe Illustrator 16.2.0, SVG Export Plug-In . SVG Version: 6.00 Build 0)  -->
<!DOCTYPE svg PUBLIC "-//W3C//DTD SVG 1.1//EN" "http://www.w3.org/Graphics/SVG/1.1/DTD/svg11.dtd">
<svg version="1.1" id="Layer_1" xmlns="http://www.w3.org/2000/svg" xmlns:xlink="http://www.w3.org/1999/xlink" x="0px" y="0px"
	 width="600px" height="600px" viewBox="0 0 600 600" enable-background="new 0 0 600 600" xml:space="preserve">
<path d="M335.422,441.421c-19.526,19.526-51.185,19.526-70.711,0L52.579,229.289c-19.526-19.525-19.526-51.184,0-70.71l0,0
	c19.526-19.526,51.185-19.526,70.711,0l212.132,212.132C354.947,390.237,354.947,421.896,335.422,441.421L335.422,441.421z"/>
<path d="M265.579,441.421c-19.526-19.526-19.526-51.185,0-70.71l212.132-212.132c19.526-19.526,51.185-19.526,70.71,0l0,0
	c19.526,19.526,19.526,51.185,0,70.71L336.289,441.421C316.764,460.947,285.105,460.947,265.579,441.421L265.579,441.421z"/>
</svg>
