<?xml version="1.0" encoding="utf-8"?>
<!-- Generator: Adobe Illustrator 16.2.0, SVG Export Plug-In . SVG Version: 6.00 Build 0)  -->
<!DOCTYPE svg PUBLIC "-//W3C//DTD SVG 1.1//EN" "http://www.w3.org/Graphics/SVG/1.1/DTD/svg11.dtd">
<svg version="1.1" id="Layer_1" xmlns="http://www.w3.org/2000/svg" xmlns:xlink="http://www.w3.org/1999/xlink" x="0px" y="0px"
	 width="600px" height="600px" viewBox="0 0 600 600" enable-background="new 0 0 600 600" xml:space="preserve">
<g>
	<path fill="#FFFFFF" d="M459.68,221.53c0-34.52-27.989-62.5-62.5-62.5c-34.52,0-62.5,27.98-62.5,62.5c0,34.51,27.98,62.5,62.5,62.5
		C431.69,284.03,459.68,256.04,459.68,221.53z M352,221.333c0-24.853,20.146-45,45-45s45,20.147,45,45s-20.146,45-45,45
		S352,246.187,352,221.333z"/>
	<path fill="#FFFFFF" d="M169.03,440.34l-35.82-23.63c2.79,16.21,12.34,29.82,26.56,39.21c28.81,19.01,67.58,11.061,86.59-17.75
		c19-28.81,11.06-67.58-17.75-86.59c-13.89-9.16-30.32-11.74-45.17-9.561l35.15,23.19c20.74,13.69,26.47,41.61,12.78,62.35
		C217.69,448.3,189.77,454.02,169.03,440.34z"/>
	<path fill="#FFFFFF" d="M300.081,25.459c-131.71,0-241.775,92.603-268.688,216.247L169.36,332.73c14.48-5.08,30.49-5.7,45.68-1.36
		l82.59-102.64c-0.19-2.48-0.28-4.97-0.28-7.49c0-55.23,44.77-100,100-100c55.23,0,100,44.77,100,100c0,55.23-44.77,100-100,100
		c-1.01,0-2.02-0.01-3.02-0.05L269.06,395.39c1.85,16.771-1.93,34.261-11.95,49.44c-22.81,34.58-69.33,44.11-103.9,21.3
		c-20.49-13.52-32.49-34.899-33.44-58.3l-90.569-59.751c22.554,129.181,135.244,227.38,270.88,227.38c151.878,0,275-123.121,275-275
		C575.081,148.581,451.959,25.459,300.081,25.459z"/>
</g>
</svg>
