<?xml version="1.0" encoding="utf-8"?>
<!-- Generator: Adobe Illustrator 16.2.0, SVG Export Plug-In . SVG Version: 6.00 Build 0)  -->
<!DOCTYPE svg PUBLIC "-//W3C//DTD SVG 1.1//EN" "http://www.w3.org/Graphics/SVG/1.1/DTD/svg11.dtd">
<svg version="1.1" id="Layer_1" xmlns="http://www.w3.org/2000/svg" xmlns:xlink="http://www.w3.org/1999/xlink" x="0px" y="0px"
	 width="600px" height="600px" viewBox="0 0 600 600" enable-background="new 0 0 600 600" xml:space="preserve">
<path d="M575,75c0-27.614-22.386-50-50-50H75c-27.614,0-50,22.386-50,50v450c0,27.614,22.386,50,50,50h450c27.614,0,50-22.386,50-50
	V75z M426,258h-99v97v56h1.238c5.059,26,58.762,34.183,97.762-1.229v56.438C341,531.395,234.234,488,230.647,411H229V258h-56v-53v-6
	v-0.19c0,0,75.454-1.81,96.473-95.81h0.027h10H327v97h99V258z"/>
</svg>
