<?xml version="1.0" encoding="utf-8"?>
<!-- Generator: Adobe Illustrator 16.2.0, SVG Export Plug-In . SVG Version: 6.00 Build 0)  -->
<!DOCTYPE svg PUBLIC "-//W3C//DTD SVG 1.1//EN" "http://www.w3.org/Graphics/SVG/1.1/DTD/svg11.dtd">
<svg version="1.1" id="Layer_1" xmlns="http://www.w3.org/2000/svg" xmlns:xlink="http://www.w3.org/1999/xlink" x="0px" y="0px"
	 width="600px" height="600px" viewBox="0 0 600 600" enable-background="new 0 0 600 600" xml:space="preserve">
<path d="M575,75c0-27.614-22.386-50-50-50H75c-27.614,0-50,22.386-50,50v450c0,27.614,22.386,50,50,50h450c27.614,0,50-22.386,50-50
	V75z M450.507,244.159c0,113.044-93.933,207.138-206.978,207.138c-55.877,0-106.515-22.4-143.45-58.698
	c12.715,3.534,26.112,5.431,39.952,5.431c26.899,0,52.869-7.115,75.398-19.573c-47.856-17.183-134.471-104.238-94.67-226.409
	c0,0,71.388,95.797,167.876,93.378c-1.522-26.785,4.942-51.077,21.058-70.527c29.168-35.203,76.671-30.673,101.084-15.59
	c10.737,6.634,19.162,16.417,25.445,27.709l65.56-8.91l-51.859,54.298C450.313,236.389,450.507,240.324,450.507,244.159z"/>
</svg>
