<?xml version="1.0" encoding="utf-8"?>
<!-- Generator: Adobe Illustrator 16.2.0, SVG Export Plug-In . SVG Version: 6.00 Build 0)  -->
<!DOCTYPE svg PUBLIC "-//W3C//DTD SVG 1.1//EN" "http://www.w3.org/Graphics/SVG/1.1/DTD/svg11.dtd">
<svg version="1.1" id="Layer_1" xmlns="http://www.w3.org/2000/svg" xmlns:xlink="http://www.w3.org/1999/xlink" x="0px" y="0px"
	 width="600px" height="600px" viewBox="0 0 600 600" enable-background="new 0 0 600 600" xml:space="preserve">
<path d="M569.189,161.504c-2.727-25.423-24.268-44.109-53.977-46.228c-106.49-7.596-322.392-6.972-431.802,0
	c-29.728,1.894-51.542,20.781-53.976,46.228c-6.564,68.617-5.835,206.051,0,277.367c2.083,25.468,24.236,44.299,53.976,46.228
	c111.219,7.215,325.661,6.346,431.802,0c29.752-1.778,50.859-20.837,53.977-46.228C577.941,367.555,576.482,229.496,569.189,161.504
	z M232,367.717V232.779l134.939,66.345L232,367.717z"/>
</svg>
